sfk_cyclingleg_states
version=1
nRows=8
nColumns=53
inDegrees=yes

# SIMM Motion File Header:
name sfk_cyclingleg_states
datacolumns 53
datarows 8
otherdata 1
range 0.00000000 0.02376352
endheader
time	/jointset/bb/crank_angle/value	/jointset/bb/crank_angle/speed	/jointset/spindle/pedal_angle_r/value	/jointset/spindle/pedal_angle_r/speed	/jointset/ground_pelvis/pelvis_tilt/value	/jointset/ground_pelvis/pelvis_tilt/speed	/jointset/ground_pelvis/pelvis_list/value	/jointset/ground_pelvis/pelvis_list/speed	/jointset/ground_pelvis/pelvis_rotation/value	/jointset/ground_pelvis/pelvis_rotation/speed	/jointset/ground_pelvis/pelvis_tx/value	/jointset/ground_pelvis/pelvis_tx/speed	/jointset/ground_pelvis/pelvis_ty/value	/jointset/ground_pelvis/pelvis_ty/speed	/jointset/ground_pelvis/pelvis_tz/value	/jointset/ground_pelvis/pelvis_tz/speed	/jointset/hip_r/hip_angle_r/value	/jointset/hip_r/hip_angle_r/speed	/jointset/hip_r/hip_adduction_r/value	/jointset/hip_r/hip_adduction_r/speed	/jointset/hip_r/hip_rotation_r/value	/jointset/hip_r/hip_rotation_r/speed	/jointset/knee_r/knee_angle_r/value	/jointset/knee_r/knee_angle_r/speed	/jointset/knee_r/tib_tx_r/value	/jointset/knee_r/tib_tx_r/speed	/jointset/knee_r/tib_ty_r/value	/jointset/knee_r/tib_ty_r/speed	/jointset/tib_pat_r/pat_angle_r/value	/jointset/tib_pat_r/pat_angle_r/speed	/jointset/tib_pat_r/pat_tx_r/value	/jointset/tib_pat_r/pat_tx_r/speed	/jointset/tib_pat_r/pat_ty_r/value	/jointset/tib_pat_r/pat_ty_r/speed	/jointset/ankle_r/ankle_angle_r/value	/jointset/ankle_r/ankle_angle_r/speed	/jointset/subtalar_r/subtalar_angle_r/value	/jointset/subtalar_r/subtalar_angle_r/speed	/jointset/mtp_r/mtp_angle_r/value	/jointset/mtp_r/mtp_angle_r/speed	/forceset/bifemlh_r/activation	/forceset/bifemlh_r/fiber_length	/forceset/bifemsh_r/activation	/forceset/bifemsh_r/fiber_length	/forceset/glut_max2_r/activation	/forceset/glut_max2_r/fiber_length	/forceset/vas_int_r/activation	/forceset/vas_int_r/fiber_length	/forceset/med_gas_r/activation	/forceset/med_gas_r/fiber_length	/forceset/tib_ant_r/activation	/forceset/tib_ant_r/fiber_length
      0.00000000	    -10.13487855	   -480.13863232	      7.81981920	    607.38333639	      0.00000000	     -0.00000000	      0.00000000	     -0.00000000	     -0.00000000	     -0.00000000	     -0.00000000	      0.00000000	      0.00000000	      0.00000000	     -0.00000000	      0.00000000	     86.32931611	     21.93289715	      4.07550622	      1.53754667	     -3.84192465	     15.91686169	   -115.75559844	    153.42156058	     -0.00222969	      0.05232689	     -0.49468443	      0.04963396	     17.65087772	     -0.07885657	      0.02157084	      0.07540803	     -0.02426339	      0.01219225	     27.80654773	    -49.54325673	      0.00000000	     -0.00000000	     -0.00000000	     -0.00000000	      0.05000000	      0.14049887	      0.05000000	      0.14480596	      0.05000000	      0.15634451	      0.05000000	      0.16066642	      0.05000000	      0.10000000	      0.05000000	      0.10000000
      0.00102765	    -10.62829409	   -480.13863232	      8.44375588	    606.91160895	     -0.00000000	     -0.00000000	     -0.00000000	     -0.00000000	     -0.00000000	     -0.00000000	      0.00000000	      0.00000000	      0.00000000	      0.00000000	      0.00000000	      0.00000000	     86.35082148	     19.92013265	      4.07709563	      1.55571127	     -3.82549323	     16.06129165	   -115.59700408	    155.22998403	     -0.00217571	      0.05273047	     -0.49463309	      0.05026694	     17.65079156	     -0.08890482	      0.02164873	      0.07617820	     -0.02425080	      0.01230993	     27.75549056	    -49.82119054	     -0.00000000	     -0.00000000	      0.00000000	      0.00000000	      0.04926750	      0.14049952	      0.04926750	      0.14480797	      0.04926750	      0.15634521	      0.04926750	      0.16065503	      0.05000000	      0.10000000	      0.05000000	      0.10000000
      0.00539252	    -12.72403372	   -480.13863232	     11.08842726	    604.88233347	     -0.00000000	      0.00000000	     -0.00000000	      0.00000000	     -0.00000000	     -0.00000000	      0.00000000	      0.00000000	      0.00000000	     -0.00000000	      0.00000000	      0.00000000	     86.41908113	     11.35288299	      4.08405029	      1.63021098	     -3.75409395	     16.64662893	   -114.90291802	    162.76329878	     -0.00194202	      0.05431347	     -0.49440787	      0.05292245	     17.65030314	     -0.13613605	      0.02198819	      0.07933270	     -0.02419601	      0.01278564	     27.53568112	    -50.85796670	     -0.00000000	     -0.00000000	      0.00000000	      0.00000000	      0.04628817	      0.14051768	      0.04628817	      0.14485842	      0.04628817	      0.15636198	      0.04628817	      0.16045245	      0.05000000	      0.10000000	      0.05000000	      0.10000000
      0.00975738	    -14.81977334	   -480.13863232	     13.72416916	    602.82245588	      0.00000000	      0.00000000	      0.00000000	      0.00000000	     -0.00000000	      0.00000000	      0.00000000	      0.00000000	     -0.00000000	     -0.00000000	      0.00000000	      0.00000000	     86.44991373	      2.77505811	      4.09132022	      1.70010351	     -3.68023776	     17.18726014	   -114.17647738	    170.05439009	     -0.00170188	      0.05568360	     -0.49417118	      0.05552225	     17.64959223	     -0.19053639	      0.02234101	      0.08229733	     -0.02413924	      0.01322121	     27.31184554	    -51.66720191	     -0.00000000	     -0.00000000	      0.00000000	      0.00000000	      0.04350949	      0.14056208	      0.04350949	      0.14495486	      0.04350949	      0.15639397	      0.04350949	      0.16009595	      0.05000000	      0.10000000	      0.05000000	      0.10000000
      0.01412224	    -16.91551297	   -480.13863232	     16.35087809	    600.74552959	      0.00000000	      0.00000000	      0.00000000	     -0.00000000	      0.00000000	      0.00000000	      0.00000000	      0.00000000	     -0.00000000	     -0.00000000	      0.00000000	     -0.00000000	     86.44332690	     -5.78888697	      4.09888446	      1.76500096	     -3.60411702	     17.68448907	   -113.41874660	    177.10015343	     -0.00145622	      0.05684107	     -0.49392326	      0.05806344	     17.64863456	     -0.24882042	      0.02270635	      0.08507167	     -0.02408065	      0.01361533	     27.08496010	    -52.25685308	     -0.00000000	     -0.00000000	      0.00000000	      0.00000000	      0.04091559	      0.14063067	      0.04091559	      0.14507152	      0.04091559	      0.15643081	      0.04091559	      0.15983559	      0.05000000	      0.10000000	      0.05000000	      0.10000000
      0.01696289	    -18.27941643	   -480.13863232	     18.05545856	    599.39055331	      0.00000000	      0.00000000	      0.00000000	      0.00000000	      0.00000000	      0.00000000	      0.00000000	      0.00000000	     -0.00000000	      0.00000000	      0.00000000	     -0.00000000	     86.41898856	    -11.34376456	      4.10395469	      1.80438789	     -3.55345000	     17.98549043	   -112.90931900	    181.55269738	     -0.00129383	      0.05748072	     -0.49375601	      0.05968440	     17.64787182	     -0.28839617	      0.02295045	      0.08677522	     -0.02404164	      0.01384898	     26.93611255	    -52.52691192	     -0.00000000	     -0.00000000	      0.00000000	      0.00000000	      0.03931988	      0.14068502	      0.03931988	      0.14515434	      0.03931988	      0.15645354	      0.03931988	      0.15958452	      0.05000000	      0.10000000	      0.05000000	      0.10000000
      0.02065850	    -20.05382117	   -480.13863232	     20.26731663	    597.62972554	      0.00000000	      0.00000000	      0.00000000	      0.00000000	      0.00000000	      0.00000000	      0.00000000	      0.00000000	     -0.00000000	     -0.00000000	      0.00000000	      0.00000000	     86.36376140	    -18.53699235	      4.11071243	      1.85210700	     -3.48629786	     18.35131209	   -112.22790358	    187.18786083	     -0.00108006	      0.05817993	     -0.49353161	      0.06175301	     17.64670844	     -0.34147405	      0.02327505	      0.08887179	     -0.02398994	      0.01412544	     26.74153865	    -52.74925653	     -0.00000000	     -0.00000000	      0.00000000	      0.00000000	      0.03734593	      0.14076205	      0.03734593	      0.14526907	      0.03734593	      0.15647901	      0.03734593	      0.15930900	      0.05000000	      0.10000000	      0.05000000	      0.10000000
      0.02376352	    -21.54466308	   -480.13863232	     22.12068152	    596.15612400	      0.00000000	      0.00000000	      0.00000000	      0.00000000	      0.00000000	      0.00000000	      0.00000000	      0.00000000	     -0.00000000	     -0.00000000	      0.00000000	      0.00000000	     86.29686945	    -24.54283028	      4.11652133	      1.88901358	     -3.42886819	     18.63688346	   -111.63951182	    191.78452673	     -0.00089865	      0.05865239	     -0.49333721	      0.06345478	     17.64557743	     -0.38717481	      0.02355360	      0.09052942	     -0.02394575	      0.01433324	     26.57760434	    -52.82753664	     -0.00000000	     -0.00000000	      0.00000000	      0.00000000	      0.03577163	      0.14082840	      0.03577163	      0.14537205	      0.03577163	      0.15649568	      0.03577163	      0.15903061	      0.05000000	      0.10000000	      0.05000000	      0.10000000
